/* XPM */
static const char *vlopt_icon_xpm_32x32[] =
{
"32 32 13 1",
"d c #000000",
". c #005f7a",
"# c #00a8db",
"k c #00d5ff",
"a c #17c5ff",
"e c #384f00",
"j c #512000",
"b c #71fff8",
"i c #73a400",
"g c #933d00",
"f c #a400a4",
"h c #a7e900",
"c c #ff6600",
"................................",
".##aaabbbbbbbbbbbbbbbbbaa######.",
".#ccccccccccccccccccbbbbbbbbaa#.",
".#cddddddddddddddddc#ababbbbbaa.",
".#cddddddddddddddddcaaaaaaaaaa#.",
".#cddddddddddddddddc#######c###.",
".#cddddddddddddddddc##aaaacc#aa.",
".#cddddddddddddddddcaaaa#ccccaa.",
"ebfbbbbbbbbbdddddddcabaacgccc#a.",
"ehfhhhhhhhhhdddddddcbbbcggcgcca.",
"eefieeiieehhdddddddcbbcgjgcccc#.",
"eefieeiieeihdddddddcacgjjgcgccc.",
"eifeiieeiihhdddddddccgjjjggggcc.",
"eifeiieeiiihdddddddiggjjgggccgge",
"eefieeiieehhiiiiiiiiiiiiiiiiiige",
"eefieeiieeihiddddddigjjgggggcige",
"eifeiieeiihhiddddddigjgjggggcige",
"eiffffffffffiiiiiiiijjjggggggige",
"eeiieeiieeihcbbbbbbbbbbbbbbbbcbe",
"eeiieeiieeeickkbbbbbbbbbbbkkkcke",
"ebbbbbbbbbbbfkkkkkkkkkkkkkkkkfbe",
"ehhhhhhhhhhhfbbbbbbkk#kbkbbbbfhe",
"eeiieeiieeiifkkkkkkkkkkkkkbkkfie",
"eeiieeiieeiifkbkbbkbbbb#kkkkbfie",
"eieeiieeiieefkkkkkkkkk#bbbkkkfee",
"eieeiieeiieefkkkkkkkkkkkkkkkkfee",
"eeiieeiieeiifkkk#kbbbkkbbbbk#fie",
"eeiieeiieeiifkk#kkkkkkkkkkkkkfie",
"eieeiieeiieefkkkkkkkkkk#kbbkkfee",
"eieeiieeiieeffffffffffffffffffee",
"eeiieeiieeiieeiieeiieeiieeiieeie",
"eeeeeeeeeeeeeeeeeeeeeeeeeeeeeeee"
};
