/* XPM */
static const char *sgens_icon_xpm_32x32[] =
{
"32 32 5 1",
". c None",
"# c #000000",
"a c #204080",
"b c #6080c0",
"c c #a0c0ff",
"......#######...................",
"....##abcccba####...............",
"...#acccccccccba##..............",
"..#acccccccccccc##..............",
".#acccccccccccc###..............",
".#bcccba##abccb##.....######....",
".#ccccccb########...##bccccb##..",
".#bcccccccba#####.##bcccccccc##.",
"..#bccccccccba#..#accccccccccc##",
"...#abcccccccca##accccccccccc###",
".######bccccccb#accccca##bcb####",
".#bcccbaabcccca#ccccca##########",
".#cccccccccccc#bccccb##bbbbbbb##",
"#bccccccccccca#ccccc##bccccccc##",
"##abcccccccba##ccccc##bbccccc###",
".####abccba####cccccb###ccccc###",
"...############bcccccccccccca###",
".....#######..#acccccccccccc###.",
"...............#bccccccccccb###.",
"................#acccccaacca##..",
".................#######ccca##..",
"..................######aaa###..",
".############..........######...",
"#bcccc#bcccc#...........#####...",
"#c#####c################.######.",
"#c#####c#####bcccb#caccb#bcccc##",
"#bcccb#c#ccc#c###c#cb##c#c######",
".####c#c###c#ccccc#c###c#bcccb##",
"#####c#c###c#c#####c###c#####c##",
"#ccccb#bcccc#bcccc#c###c#ccccb##",
"################################",
".######.##############.########."
};
