/* XPM */
static const char *gg_icon_xpm_32x32[] =
{
"32 32 3 1",
". c None",
"# c #000000",
"a c #ff0000",
"................................",
"................................",
"................................",
".......###......................",
"......#aaa#.....................",
".....#aa#aa#....................",
"....#aa#.#a#....................",
"....#a#...#.....................",
"....#a#.........................",
"....#a#.####....................",
"....#a#.#aa#....................",
"....#a#..#a#..a..a...a.aaa......",
"....#aa#.#a#.a.a.aa.aa.a........",
".....#aa#aa#.aaa.a.a.a.aaa......",
"......#aaa#..a.a.a.a.a.a........",
".......###...a.a.a.a.a.aaa......",
".........###....................",
"........#aaa#...................",
".......#aa#aa#..................",
"......#aa#.#a#..................",
"......#a#...#...................",
"......#a#.......................",
"......#a#.####..................",
"......#a#.#aa#..................",
"......#a#..#a#.aaa.a.a.a.aaa....",
"......#aa#.#a#.a...aaa.a.a......",
".......#aa#aa#.aaa.a.a.a.aaa....",
"........#aaa#..a...a.a.a.a......",
".........###...aaa.a.a.a.aaa....",
"................................",
"................................",
"................................"
};
